<svg width="21" height="26" viewBox="0 0 21 26" fill="none" xmlns="http://www.w3.org/2000/svg">
<path d="M8.52832 19.7504C9.53723 19.0012 11.1849 19.0018 12.1934 19.7513L13.6874 20.8618C14.0658 21.143 14.1262 21.6862 13.8187 22.0436L11.0757 25.2319C10.7516 25.6086 10.1683 25.6087 9.84412 25.232L7.02251 21.953C6.71488 21.5956 6.77531 21.0521 7.15395 20.771L8.52832 19.7504ZM20.755 12.9975C20.9872 13.3027 20.9744 13.7287 20.7243 14.0194L16.0118 19.4952C15.7379 19.8135 15.2666 19.8706 14.9247 19.6269L13.8438 18.8568C12.7898 18.1831 12.6581 17.5559 13.5469 16.764L18.8955 11.9992C19.2489 11.6843 19.7956 11.7371 20.0823 12.1137L20.755 12.9975ZM7.21484 16.7719C8.08475 17.5623 7.95032 18.1759 6.91016 18.8461L5.92595 19.547C5.58396 19.7906 5.11272 19.7334 4.83889 19.4151L0.196316 14.0192C-0.053707 13.7286 -0.0665575 13.3028 0.165488 12.9976L0.811931 12.1475C1.10045 11.7681 1.65209 11.7175 2.00486 12.038L7.21484 16.7719ZM18.1647 9.59394C18.4396 9.95521 18.3652 10.4717 17.9993 10.7406L12.1826 15.015C11.1762 15.7545 9.54449 15.7546 8.53809 15.015L2.8493 10.8343C2.48346 10.5655 2.40898 10.049 2.68394 9.68771L9.81353 0.320385C10.1386 -0.106761 10.7813 -0.106763 11.1064 0.320382L18.1647 9.59394Z" fill="url(#paint0_radial_1_111721)"/>
<defs>
<radialGradient id="paint0_radial_1_111721" cx="0" cy="0" r="1" gradientUnits="userSpaceOnUse" gradientTransform="translate(10.4605 18.1066) rotate(-90) scale(28.8518 12.12)">
<stop stop-color="#E9E6FF"/>
<stop offset="0.408654" stop-color="#6F5EFB"/>
<stop offset="1" stop-color="#423895"/>
</radialGradient>
</defs>
</svg>
